<?xml version="1.0" encoding="UTF-8" standalone="no"?>
<!-- Created with Inkscape (http://www.inkscape.org/) -->

<svg
   width="25mm"
   height="25mm"
   viewBox="0 0 25 25"
   version="1.1"
   id="svg709"
   sodipodi:docname="icon1.svg"
   inkscape:export-filename="icon1.svg"
   inkscape:export-xdpi="96"
   inkscape:export-ydpi="96"
   inkscape:version="1.2 (dc2aedaf03, 2022-05-15)"
   xmlns:inkscape="http://www.inkscape.org/namespaces/inkscape"
   xmlns:sodipodi="http://sodipodi.sourceforge.net/DTD/sodipodi-0.dtd"
   xmlns="http://www.w3.org/2000/svg"
   xmlns:svg="http://www.w3.org/2000/svg">
  <sodipodi:namedview
     id="namedview44"
     pagecolor="#ffffff"
     bordercolor="#000000"
     borderopacity="0.25"
     inkscape:showpageshadow="2"
     inkscape:pageopacity="0.0"
     inkscape:pagecheckerboard="0"
     inkscape:deskcolor="#d1d1d1"
     inkscape:document-units="mm"
     showgrid="false"
     inkscape:zoom="1.7840476"
     inkscape:cx="66.141732"
     inkscape:cy="66.421994"
     inkscape:window-width="1440"
     inkscape:window-height="838"
     inkscape:window-x="-8"
     inkscape:window-y="-8"
     inkscape:window-maximized="1"
     inkscape:current-layer="svg709" />
  <defs
     id="defs706">
    <linearGradient
       id="paint1_linear_2_71"
       x1="887.24701"
       y1="205.88"
       x2="975.41101"
       y2="251.884"
       gradientUnits="userSpaceOnUse"
       gradientTransform="translate(-90.836864,-20.762712)">
      <stop
         stop-color="#3CA0D2"
         id="stop327" />
      <stop
         offset="1"
         stop-color="#48DCA6"
         id="stop329" />
    </linearGradient>
    <filter
       id="filter0_d_2_71"
       x="864.13702"
       y="196.13699"
       width="93.698601"
       height="109.726"
       filterUnits="userSpaceOnUse"
       color-interpolation-filters="sRGB">
      <feFlood
         flood-opacity="0"
         result="BackgroundImageFix"
         id="feFlood152" />
      <feColorMatrix
         in="SourceAlpha"
         type="matrix"
         values="0 0 0 0 0 0 0 0 0 0 0 0 0 0 0 0 0 0 127 0"
         result="hardAlpha"
         id="feColorMatrix154" />
      <feOffset
         id="feOffset156" />
      <feGaussianBlur
         stdDeviation="4.93151"
         id="feGaussianBlur158" />
      <feComposite
         in2="hardAlpha"
         operator="out"
         id="feComposite160" />
      <feColorMatrix
         type="matrix"
         values="0 0 0 0 0 0 0 0 0 0 0 0 0 0 0 0 0 0 0.05 0"
         id="feColorMatrix162" />
      <feBlend
         mode="normal"
         in2="BackgroundImageFix"
         result="effect1_dropShadow_2_71"
         id="feBlend164" />
      <feBlend
         mode="normal"
         in="SourceGraphic"
         in2="effect1_dropShadow_2_71"
         result="shape"
         id="feBlend166" />
    </filter>
    <filter
       id="filter1_d_2_71"
       x="861.67102"
       y="201.069"
       width="98.630096"
       height="98.630203"
       filterUnits="userSpaceOnUse"
       color-interpolation-filters="sRGB">
      <feFlood
         flood-opacity="0"
         result="BackgroundImageFix"
         id="feFlood169" />
      <feColorMatrix
         in="SourceAlpha"
         type="matrix"
         values="0 0 0 0 0 0 0 0 0 0 0 0 0 0 0 0 0 0 127 0"
         result="hardAlpha"
         id="feColorMatrix171" />
      <feOffset
         id="feOffset173" />
      <feGaussianBlur
         stdDeviation="6.16438"
         id="feGaussianBlur175" />
      <feComposite
         in2="hardAlpha"
         operator="out"
         id="feComposite177" />
      <feColorMatrix
         type="matrix"
         values="0 0 0 0 0 0 0 0 0 0 0 0 0 0 0 0 0 0 0.08 0"
         id="feColorMatrix179" />
      <feBlend
         mode="normal"
         in2="BackgroundImageFix"
         result="effect1_dropShadow_2_71"
         id="feBlend181" />
      <feBlend
         mode="normal"
         in="SourceGraphic"
         in2="effect1_dropShadow_2_71"
         result="shape"
         id="feBlend183" />
    </filter>
    <linearGradient
       id="paint2_linear_2_71"
       x1="893.802"
       y1="238.28799"
       x2="918.46002"
       y2="264.12"
       gradientUnits="userSpaceOnUse"
       gradientTransform="translate(-90.836864,-20.762712)">
      <stop
         stop-color="#3CA0D2"
         id="stop332" />
      <stop
         offset="1"
         stop-color="#48DCA6"
         id="stop334" />
    </linearGradient>
  </defs>
  <g
     id="layer1"
     transform="translate(-5.7838983,-5.4872881)">
    <g
       id="g651"
       transform="matrix(0.26458333,0,0,0.26458333,-200.91427,-40.465574)">
      <ellipse
         cx="831.51917"
         cy="217.51129"
         rx="43.457298"
         ry="43.756302"
         fill="#ffffff"
         id="ellipse16" />
      <path
         d="m 790.30714,200.19329 c 5.99,-6.595 10.781,-14.341 17.56,-20.08 m -18.657,27.887 c 10.656,-10.528 18.931,-22.149 22.06,-30.684 m -21.808,33.96 c 7.053,-12.597 14.828,-19.951 27.204,-31.608 m -27.325,33.771 c 9.827,-12.55 19.586,-21.93 28.949,-35.168 m -31.127,40.49 c 15.846,-18.276 29.099,-33.415 38.116,-42.932 m -36.545,44.055 c 9.668,-12.332 19.866,-24.761 37.763,-45.182 m -36.35,47.889 c 11.325,-13.487 23.091,-31.653 37.223,-49.354 m -36.577,52.155 c 16.784,-18.756 32.032,-38.881 39.589,-51.883 m -39.34,56.344 c 7.492,-15.135 19.082,-26.898 41.83,-55.453 m -40.633,56.109 c 12.813,-18.504 30.003,-36.601 46.685,-56.095 m -45.654,59.776 c 15.238,-21.911 34.799,-43.171 44.627,-58.902 m -43.995,60.97 c 12.76,-18.7 24.637,-33.814 49.119,-62.094 m -49.089,64.071 c 14.059,-21.198 29.905,-37.342 47.845,-63.797 m -48.951,64.592 c 17.546,-20.117 31.291,-37.467 51.426,-60.667 m -47.862,61.905 c 10.19,-11.68 19.662,-23.142 52.834,-62.998 m -51.448,64.662 c 17.121,-19.765 38.384,-44.408 54.368,-63.237 m -52.141,65.709 c 18.794,-25.149 35.611,-46.061 52.985,-63.205 m -54.439,66.706 c 20.676,-26.483 44.039,-54.504 54.096,-69.077 m -50.535,67.107 c 12.342,-13.392 25.617,-29.113 53.069,-65.83 m -51.708,68.763 c 20.038,-22.127 36.746,-43.894 53.854,-65.708 m -54.014,65.581 c 18.698,-16.311 35.893,-36.72 55.121,-63.801 m -52.972,65.424 c 21.767,-22.291 40.191,-45.731 55.735,-66.004 m -53.522,67.418 c 22.786,-23.171 42.832,-51.462 54.978,-65.623 m -55.532,67.894 c 12.586,-16.962 28.966,-32.487 56.316,-67.843 m -53.085,67.861 c 14.366,-16.464 27.618,-31.61 54.9,-66.501 m -51.396,68.693 c 16.432,-18.746 34.628,-43.169 53.619,-63.256 m -53.366,66.81 c 15.755,-19.582 28.117,-38.644 53.707,-68.165 m -51.034,66.294 c 11.028,-16.165 27.98,-30.938 51.752,-62.698 m -51.249,65.01 c 15.984,-22.767 33.564,-40.116 51.077,-65.401 m -47.464,64.885 c 17.721,-21.104 38.061,-45.985 50.639,-61.488 m -48.261,60.88 c 8.419,-11.082 22.078,-23.537 48.597,-57.315 m -47.95,58.969 c 15.325,-18.226 33.906,-40.967 49.306,-59.345 m -45.219,60.276 c 16.358,-22.711 30.58,-42.093 44.346,-54.6 m -43.163,55.81 c 14.607,-16.354 27.289,-31.407 43.593,-55.049 m -41.666,55.361 c 12.412,-13.736 20.235,-27.255 44.554,-51.976 m -40.406,49.823 c 15.292,-15.567 28.412,-29.842 38.834,-50.696 m -36.938,50.952 c 10.528,-16.43 22.086,-31.106 36.547,-44.333 m -33.481,42.688 c 14.839,-15.128 25.623,-30.453 33.943,-41.08 m -29.028,41.375 c 9.75,-15.11 20.773,-27.844 32.02,-36.375 m -28.742,35.829 c 8.374,-11.959 20.426,-24.327 27.554,-35.002 m -23.587,30.494 c 8.394,-8.764 13.552,-15.695 21.77,-21.652 m -17.924,19.378 c 5.139,-4.573 10.997,-12.477 16.557,-16.721 m -72.128,-49.216 z"
         stroke="url(#paint1_linear_2_71)"
         stroke-width="0.5"
         stroke-linecap="round"
         id="path18"
         style="stroke:url(#paint1_linear_2_71)" />
      <g
         filter="url(#filter0_d_2_71)"
         id="g24"
         transform="translate(-90.836864,-20.762712)">
        <g
           filter="url(#filter1_d_2_71)"
           id="g22">
          <circle
             cx="910.98602"
             cy="250.384"
             r="36.986301"
             fill="#ffffff"
             id="circle20" />
        </g>
      </g>
      <path
         d="m 819.51414,214.90529 c -10.728,1.158 -22.704,8.781 -20.562,20.562 h 41.127 c 1.365,-12.249 -9.159,-21.798 -20.565,-20.562 z"
         fill="url(#paint2_linear_2_71)"
         id="path26"
         style="fill:url(#paint2_linear_2_71)" />
      <path
         d="m 818.08614,234.88529 c -0.136,0.045 -0.254,0.133 -0.337,0.25 -0.083,0.117 -0.125,0.258 -0.122,0.401 0.417,0.078 1.095,0.318 1.59,0.15 0.123,-0.031 0.239,-0.086 0.341,-0.163 0.101,-0.077 0.186,-0.173 0.25,-0.283 0.063,-0.111 0.103,-0.233 0.118,-0.359 0.015,-0.127 0.005,-0.255 -0.031,-0.377 -0.45,-0.744 -1.5,0 -1.965,0.402 -1.035,1.098 0.555,1.575 1.467,1.257 0.245,-0.056 0.477,-0.158 0.684,-0.3 0.825,-0.618 0.165,-2.046 -0.798,-2.085 -0.93,-0.102 -2.013,0.708 -2.148,1.623 -0.078,1.014 1.17,1.533 2.049,1.176 0.482,-0.154 0.914,-0.435 1.251,-0.813 0.651,-0.675 0.63,-1.986 -0.345,-2.307 -0.882,-0.222 -2.163,0.06 -2.973,0.486 -0.861,0.477 -1.2,1.644 -0.3,2.265 1.239,0.828 3.213,0.771 4.368,-0.138 2.61,-2.364 -4.851,-5.217 -5.343,-1.2 -0.156,1.785 2.268,2.31 3.645,2.046 0.546,-0.099 1.045,-0.372 1.422,-0.78 -0.361,0.433 -0.853,0.737 -1.401,0.867 -1.251,0.3 -3.183,0 -3.804,-1.278 -0.154,-0.42 -0.183,-0.876 -0.084,-1.313 0.1,-0.436 0.324,-0.835 0.645,-1.147 1.326,-1.272 3.48,-0.879 4.89,0.051 1.143,0.747 1.557,2.199 0.363,3.156 -0.936,0.771 -2.196,0.951 -3.357,0.807 -2.277,-0.216 -3.495,-2.367 -1.35,-3.831 0.518,-0.288 1.084,-0.479 1.671,-0.561 0.592,-0.145 1.211,-0.138 1.8,0.018 0.984,0.3 1.41,1.5 1.056,2.433 -0.6,1.71 -3.381,2.745 -4.5,0.972 -1.02,-1.824 1.839,-3.9 3.384,-2.625 0.747,0.6 0.951,1.911 0.102,2.499 -0.849,0.588 -2.991,0.753 -3.039,-0.678 0,-0.948 2.298,-2.22 2.784,-1.077 0.042,0.145 0.054,0.296 0.035,0.446 -0.019,0.149 -0.069,0.293 -0.146,0.422 -0.077,0.129 -0.18,0.241 -0.302,0.329 -0.123,0.087 -0.262,0.149 -0.409,0.18 -0.582,0.135 -1.143,-0.069 -1.665,-0.252 -10e-4,-0.151 0.047,-0.299 0.138,-0.42 0.091,-0.121 0.22,-0.208 0.366,-0.249 z"
         fill="#454545"
         id="path28" />
      <path
         d="m 818.92914,232.01729 c 2.53,-2.241 4.84,-4.718 6.9,-7.398 1.04,-1.328 2.067,-2.671 3.081,-4.029 1.008,-1.365 2.073,-2.673 2.853,-4.119 l 0.708,0.534 c -2.57,2.55 -4.893,5.336 -6.939,8.322 -2.049,3.002 -3.837,6.175 -5.343,9.483 0.583,-1.734 1.274,-3.429 2.07,-5.076 1.608,-3.308 3.589,-6.421 5.904,-9.279 1.704,-2.154 3.93,-4.338 5.91,-6.258 l -1.5,2.7 c -0.852,1.533 -1.935,2.871 -2.973,4.2 -3.135,3.996 -6.441,8.004 -10.65,10.917 z"
         fill="#454545"
         id="path30" />
      <path
         d="m 798.51714,226.96529 c 1.112,-0.027 2.22,0.144 3.273,0.504 1.061,0.333 2.055,0.851 2.937,1.53 -0.546,-0.132 -1.065,-0.3 -1.581,-0.462 -1.446,-0.477 -3.216,-1.008 -4.629,-1.572 z"
         fill="#feffff"
         id="path32" />
      <path
         d="m 806.02614,217.59629 c 1.645,1.983 3.107,4.11 4.368,6.357 -1.926,-1.755 -3.42,-3.93 -4.368,-6.357 z"
         fill="#feffff"
         id="path34" />
      <path
         d="m 818.26314,212.93729 c 0.51,2.509 0.612,5.085 0.3,7.626 -0.512,-2.509 -0.613,-5.084 -0.3,-7.626 z"
         fill="#feffff"
         id="path36" />
      <path
         d="m 832.59714,222.62129 c 1.796,-1.688 3.95,-2.95 6.3,-3.693 -1.954,1.465 -4.067,2.704 -6.3,3.693 z"
         fill="#feffff"
         id="path38" />
      <path
         d="m 836.47314,230.78129 c 2.559,-0.18 5.13,0.054 7.614,0.693 -2.559,0.183 -5.13,-0.051 -7.614,-0.693 z"
         fill="#feffff"
         id="path40" />
      <path
         d="m 831.25314,214.41029 c -0.711,1.365 -1.719,2.946 -2.514,4.266 -0.3,0.468 -0.579,0.936 -0.9,1.395 0.497,-2.206 1.695,-4.192 3.414,-5.661 z"
         fill="#feffff"
         id="path42" />
    </g>
  </g>
</svg>
