<?xml version="1.0" encoding="UTF-8" standalone="no"?>
<!-- Created with Inkscape (http://www.inkscape.org/) -->

<svg
   width="25mm"
   height="25mm"
   viewBox="0 0 25 25"
   version="1.1"
   id="svg709"
   inkscape:export-filename="icon2.svg"
   inkscape:export-xdpi="4"
   inkscape:export-ydpi="4"
   sodipodi:docname="icon4.svg"
   xmlns:inkscape="http://www.inkscape.org/namespaces/inkscape"
   xmlns:sodipodi="http://sodipodi.sourceforge.net/DTD/sodipodi-0.dtd"
   xmlns="http://www.w3.org/2000/svg"
   xmlns:svg="http://www.w3.org/2000/svg">
  <sodipodi:namedview
     id="namedview711"
     pagecolor="#ffffff"
     bordercolor="#000000"
     borderopacity="0.25"
     inkscape:showpageshadow="2"
     inkscape:pageopacity="0.0"
     inkscape:pagecheckerboard="true"
     inkscape:deskcolor="#d1d1d1"
     inkscape:document-units="mm"
     showgrid="false" />
  <defs
     id="defs706">
    <linearGradient
       id="paint8_linear_2_71"
       x1="727.24701"
       y1="912.88"
       x2="815.41101"
       y2="958.88397"
       gradientUnits="userSpaceOnUse"
       gradientTransform="translate(-90.836864,-20.762712)">
      <stop
         stop-color="#3CA0D2"
         id="stop362" />
      <stop
         offset="1"
         stop-color="#48DCA6"
         id="stop364" />
    </linearGradient>
    <filter
       id="filter6_d_2_71"
       x="704.13702"
       y="903.13702"
       width="93.698601"
       height="109.726"
       filterUnits="userSpaceOnUse"
       color-interpolation-filters="sRGB">
      <feFlood
         flood-opacity="0"
         result="BackgroundImageFix"
         id="feFlood254" />
      <feColorMatrix
         in="SourceAlpha"
         type="matrix"
         values="0 0 0 0 0 0 0 0 0 0 0 0 0 0 0 0 0 0 127 0"
         result="hardAlpha"
         id="feColorMatrix256" />
      <feOffset
         id="feOffset258" />
      <feGaussianBlur
         stdDeviation="4.93151"
         id="feGaussianBlur260" />
      <feComposite
         in2="hardAlpha"
         operator="out"
         id="feComposite262" />
      <feColorMatrix
         type="matrix"
         values="0 0 0 0 0 0 0 0 0 0 0 0 0 0 0 0 0 0 0.05 0"
         id="feColorMatrix264" />
      <feBlend
         mode="normal"
         in2="BackgroundImageFix"
         result="effect1_dropShadow_2_71"
         id="feBlend266" />
      <feBlend
         mode="normal"
         in="SourceGraphic"
         in2="effect1_dropShadow_2_71"
         result="shape"
         id="feBlend268" />
    </filter>
    <filter
       id="filter7_d_2_71"
       x="701.67102"
       y="908.06897"
       width="98.630096"
       height="98.630203"
       filterUnits="userSpaceOnUse"
       color-interpolation-filters="sRGB">
      <feFlood
         flood-opacity="0"
         result="BackgroundImageFix"
         id="feFlood271" />
      <feColorMatrix
         in="SourceAlpha"
         type="matrix"
         values="0 0 0 0 0 0 0 0 0 0 0 0 0 0 0 0 0 0 127 0"
         result="hardAlpha"
         id="feColorMatrix273" />
      <feOffset
         id="feOffset275" />
      <feGaussianBlur
         stdDeviation="6.16438"
         id="feGaussianBlur277" />
      <feComposite
         in2="hardAlpha"
         operator="out"
         id="feComposite279" />
      <feColorMatrix
         type="matrix"
         values="0 0 0 0 0 0 0 0 0 0 0 0 0 0 0 0 0 0 0.08 0"
         id="feColorMatrix281" />
      <feBlend
         mode="normal"
         in2="BackgroundImageFix"
         result="effect1_dropShadow_2_71"
         id="feBlend283" />
      <feBlend
         mode="normal"
         in="SourceGraphic"
         in2="effect1_dropShadow_2_71"
         result="shape"
         id="feBlend285" />
    </filter>
    <linearGradient
       id="paint9_linear_2_71"
       x1="734.98199"
       y1="945.75299"
       x2="769.84698"
       y2="964.13202"
       gradientUnits="userSpaceOnUse"
       gradientTransform="translate(-90.836864,-20.762712)">
      <stop
         stop-color="#3CA0D2"
         id="stop367" />
      <stop
         offset="1"
         stop-color="#48DCA6"
         id="stop369" />
    </linearGradient>
  </defs>
  <g
     inkscape:label="Слой 1"
     inkscape:groupmode="layer"
     id="layer1">
    <g
       id="g689"
       transform="matrix(0.26458333,0,0,0.26458333,-164.78274,-232.91)">
      <ellipse
         cx="671.51917"
         cy="924.51129"
         rx="43.457298"
         ry="43.756302"
         fill="#ffffff"
         id="ellipse100" />
      <path
         d="m 630.30714,907.19329 c 5.99,-6.595 10.781,-14.341 17.56,-20.08 m -18.657,27.887 c 10.656,-10.528 18.931,-22.149 22.06,-30.684 m -21.808,33.96 c 7.053,-12.597 14.828,-19.951 27.204,-31.608 m -27.325,33.771 c 9.827,-12.55 19.586,-21.93 28.949,-35.168 m -31.127,40.49 c 15.846,-18.276 29.099,-33.415 38.116,-42.932 m -36.545,44.055 c 9.668,-12.332 19.866,-24.761 37.763,-45.182 m -36.35,47.889 c 11.325,-13.487 23.091,-31.653 37.223,-49.354 m -36.577,52.155 c 16.784,-18.756 32.032,-38.881 39.589,-51.883 m -39.34,56.344 c 7.492,-15.135 19.082,-26.898 41.83,-55.453 m -40.633,56.109 c 12.813,-18.504 30.003,-36.601 46.685,-56.095 m -45.654,59.776 c 15.238,-21.911 34.799,-43.171 44.627,-58.902 m -43.995,60.97 c 12.76,-18.7 24.637,-33.814 49.119,-62.094 m -49.089,64.071 c 14.059,-21.198 29.905,-37.342 47.845,-63.797 m -48.951,64.592 c 17.546,-20.117 31.291,-37.467 51.426,-60.667 m -47.862,61.905 c 10.19,-11.68 19.662,-23.142 52.834,-62.998 m -51.448,64.662 c 17.121,-19.765 38.384,-44.408 54.368,-63.237 m -52.141,65.709 c 18.794,-25.149 35.611,-46.061 52.985,-63.205 m -54.439,66.706 c 20.676,-26.483 44.039,-54.504 54.096,-69.077 m -50.535,67.107 c 12.342,-13.392 25.617,-29.113 53.069,-65.83 m -51.708,68.763 c 20.038,-22.127 36.746,-43.894 53.854,-65.708 m -54.014,65.581 c 18.698,-16.311 35.893,-36.72 55.121,-63.801 m -52.972,65.424 c 21.767,-22.291 40.191,-45.731 55.735,-66.004 m -53.522,67.418 c 22.786,-23.171 42.832,-51.462 54.978,-65.623 m -55.532,67.894 c 12.586,-16.962 28.966,-32.487 56.316,-67.843 m -53.085,67.861 c 14.366,-16.464 27.618,-31.61 54.9,-66.501 m -51.396,68.693 c 16.432,-18.746 34.628,-43.169 53.619,-63.256 m -53.366,66.81 c 15.755,-19.582 28.117,-38.644 53.707,-68.165 m -51.034,66.294 c 11.028,-16.165 27.98,-30.938 51.752,-62.698 m -51.249,65.01 c 15.984,-22.767 33.564,-40.116 51.077,-65.401 m -47.464,64.885 c 17.721,-21.104 38.061,-45.985 50.639,-61.488 m -48.261,60.88 c 8.419,-11.082 22.078,-23.537 48.597,-57.315 m -47.95,58.969 c 15.325,-18.226 33.906,-40.967 49.306,-59.345 m -45.219,60.276 c 16.358,-22.711 30.58,-42.093 44.346,-54.6 m -43.163,55.81 c 14.607,-16.354 27.289,-31.407 43.593,-55.049 m -41.666,55.361 c 12.412,-13.736 20.235,-27.255 44.554,-51.976 m -40.406,49.823 c 15.292,-15.567 28.412,-29.842 38.834,-50.696 m -36.938,50.952 c 10.528,-16.43 22.086,-31.106 36.547,-44.333 m -33.481,42.688 c 14.839,-15.128 25.623,-30.453 33.943,-41.08 m -29.028,41.375 c 9.75,-15.11 20.773,-27.844 32.02,-36.375 m -28.742,35.829 c 8.374,-11.959 20.426,-24.327 27.554,-35.002 m -23.587,30.494 c 8.394,-8.764 13.552,-15.695 21.77,-21.652 m -17.924,19.378 c 5.139,-4.573 10.997,-12.477 16.557,-16.721 m -72.128,-49.216 z"
         stroke="url(#paint8_linear_2_71)"
         stroke-width="0.5"
         stroke-linecap="round"
         id="path102"
         style="stroke:url(#paint8_linear_2_71)" />
      <g
         filter="url(#filter6_d_2_71)"
         id="g108"
         transform="translate(-90.836864,-20.762712)">
        <g
           filter="url(#filter7_d_2_71)"
           id="g106">
          <circle
             cx="750.98602"
             cy="957.38397"
             r="36.986301"
             fill="#ffffff"
             id="circle104" />
        </g>
      </g>
      <path
         d="m 651.10114,931.61029 c -3.34,0.803 -6.54,2.106 -9.491,3.866 -1.226,0.768 -2.443,2.661 -3.396,3.778 -1.091,1.339 -2.187,2.678 -3.291,4.004 l -0.193,-0.42 c 1.491,0.123 2.969,0.369 4.42,0.735 1.441,0.364 2.846,0.858 4.198,1.478 -0.705,-0.235 -1.411,-0.454 -2.124,-0.647 -2.307,-0.614 -4.675,-0.967 -7.061,-1.053 l 0.323,-0.42 c 1.852,-2.317 3.778,-4.84 5.73,-7.069 1.642,-1.495 3.816,-2.225 5.831,-3.002 1.636,-0.57 3.323,-0.981 5.037,-1.229 z"
         fill="#454545"
         id="path110" />
      <path
         d="m 663.31614,946.35229 c 1.377,5.625 -5.856,12.072 -10.402,14.352 l -0.449,0.235 c 0.446,-2.411 -0.046,-4.901 -1.377,-6.96 0.741,0.896 1.294,1.933 1.625,3.048 0.34,1.127 0.454,2.311 0.336,3.484 l -0.378,-0.261 c 4.286,-2.409 11.38,-8.487 10.645,-13.898 z"
         fill="#454545"
         id="path112" />
      <path
         d="m 640.77014,945.99929 10.851,-16.585 c 1.096,-1.679 2.2,-3.358 3.648,-4.718 2.67,-2.519 6.326,-3.778 9.974,-4.198 3.647,-0.419 7.329,-0.021 10.977,0.365 l -0.718,9.256 c -0.223,2.821 -0.458,5.705 -1.612,8.283 -1.998,4.47 -6.385,7.308 -10.541,9.894 l -9.234,5.746 c -1.68,1.033 -3.619,2.099 -5.458,1.482 -1.083,-0.369 -1.893,-1.259 -2.64,-2.124 -1.959,-2.27 -3.807,-4.63 -5.545,-7.082"
         fill="url(#paint9_linear_2_71)"
         id="path114"
         style="fill:url(#paint9_linear_2_71)" />
      <path
         d="m 666.75714,929.22529 c -1.351,-1.121 -3.249,-0.655 -4.814,-0.344 -0.817,0.147 -1.591,0.473 -2.267,0.953 -1.432,1.066 -0.907,3.22 0.457,4.105 2.02,1.398 4.815,1.528 7.057,0.622 1.452,-0.466 1.465,-1.507 1.024,-2.779 -0.319,-1.171 -1.087,-2.166 -2.309,-2.439 -1.181,-0.303 -2.415,-0.338 -3.612,-0.101 -1.196,0.237 -2.324,0.739 -3.301,1.469 -0.645,0.47 -1.204,1.046 -1.654,1.705 -0.086,0.14 -0.137,0.299 -0.149,0.464 -0.012,0.164 0.016,0.329 0.082,0.48 2.098,3.513 8.769,4.093 11.707,1.347 0.554,-0.579 0.445,-1.259 0.134,-1.951 -0.618,-1.475 -1.735,-2.685 -3.156,-3.417 -2.783,-1.491 -6.687,-0.546 -8.396,2.098 -0.839,1.327 -0.075,3.023 1.171,3.778 1.327,0.84 3.048,1.008 4.618,0.945 1.57,-0.063 3.211,-0.546 4.361,-1.599 0.567,-0.513 1.062,-1.184 1.02,-1.814 -0.042,-0.63 -0.676,-1.251 -1.167,-1.889 -0.427,-0.623 -1.065,-1.07 -1.796,-1.259 -0.764,-0.109 -1.543,-0.015 -2.259,0.273 -1.511,0.562 -3.085,1.259 -4.059,2.464 -0.226,0.227 -0.373,0.522 -0.42,0.839 0.075,0.314 0.266,0.589 0.534,0.768 0.6,0.513 1.3,0.896 2.056,1.125 2.099,0.722 8.131,0.496 7.338,-2.913 -0.663,-3.232 -4.16,-5.146 -7.333,-4.84 -1.499,0.16 -3.359,0.454 -4.374,1.65 -1.978,2.938 0.999,6.502 3.971,7.228 1.596,0.44 3.261,0.571 4.907,0.387 0.814,-0.053 1.61,-0.261 2.346,-0.613 0.553,-0.256 1.019,-0.668 1.34,-1.186 0.321,-0.518 0.483,-1.118 0.465,-1.727 -0.21,-1.218 -1.196,-2.171 -1.855,-3.186 -0.995,-1.319 -2.208,-2.574 -3.807,-3.14 1.611,0.524 2.875,1.758 3.908,3.064 0.919,1.318 2.518,2.766 1.779,4.521 -1.213,3.186 -6.46,2.984 -9.234,2.288 -3.271,-0.76 -6.478,-4.702 -4.278,-7.947 1.184,-1.41 3.056,-1.679 4.756,-1.91 3.459,-0.373 7.287,1.68 8.068,5.281 0.127,0.463 0.13,0.952 0.009,1.416 -0.12,0.465 -0.361,0.89 -0.697,1.233 -2.376,2.057 -7.556,1.981 -9.89,-0.147 -0.63,-0.462 -1.075,-1.36 -0.605,-2.099 1.046,-1.759 2.972,-2.611 4.794,-3.299 0.848,-0.341 1.771,-0.448 2.674,-0.311 1.402,0.265 2.263,1.482 3.039,2.556 1.037,1.327 0.42,2.83 -0.739,3.825 -2.002,1.809 -4.911,2.098 -7.472,1.679 -2.195,-0.294 -4.617,-2.011 -4.365,-4.475 0.839,-4.051 6.582,-5.612 9.898,-3.728 1.584,0.817 2.829,2.167 3.514,3.812 0.902,1.901 -0.269,3.106 -1.961,3.845 -1.698,0.76 -3.58,1.013 -5.419,0.728 -1.838,-0.284 -3.556,-1.094 -4.945,-2.332 -1.901,-1.796 -0.445,-3.24 1.171,-4.474 2.41,-1.73 5.965,-2.385 8.606,-0.815 1.083,0.815 1.511,2.204 1.653,3.501 0.093,1.045 -0.646,1.726 -1.565,2.011 -2.393,0.911 -5.268,0.722 -7.371,-0.785 -1.449,-0.995 -1.973,-3.316 -0.399,-4.458 0.709,-0.491 1.52,-0.815 2.371,-0.949 1.579,-0.277 3.514,-0.692 4.84,0.466 z"
         fill="#ffffff"
         id="path116" />
      <path
         d="m 642.97414,945.84429 c 2.162,-2.813 4.336,-5.604 6.137,-8.643 1.801,-3.039 3.073,-6.393 5.352,-9.181 4.807,-5.818 13.013,-6.195 20.015,-6.388 -1.469,3.391 -1.142,7.173 -1.394,10.796 -0.214,3.841 -1.444,7.031 -4.55,9.441 -2.817,2.216 -5.877,4.071 -8.895,5.969 -3.018,1.897 -6.166,3.589 -9.331,5.239 3.134,-1.705 6.212,-3.51 9.235,-5.415 2.984,-1.919 6.036,-3.816 8.815,-6.041 2.997,-2.388 4.197,-5.457 4.374,-9.235 0.239,-3.547 -0.093,-7.245 1.259,-10.633 l 0.197,0.29 c -3.526,0.084 -7.077,0.235 -10.494,1.049 -9.033,2.196 -10.268,7.048 -14.406,14.214 -1.873,3.018 -4.097,5.78 -6.297,8.538 z"
         fill="#454545"
         id="path118" />
    </g>
  </g>
</svg>
