<?xml version="1.0" encoding="UTF-8" standalone="no"?>
<!-- Created with Inkscape (http://www.inkscape.org/) -->

<svg
   width="25mm"
   height="25mm"
   viewBox="0 0 25 25"
   version="1.1"
   id="svg709"
   xmlns="http://www.w3.org/2000/svg"
   xmlns:svg="http://www.w3.org/2000/svg">
  <defs
     id="defs706">
    <linearGradient
       id="paint10_linear_2_71"
       x1="887.24701"
       y1="1136.88"
       x2="975.41101"
       y2="1182.88"
       gradientUnits="userSpaceOnUse"
       gradientTransform="translate(-90.836864,-20.762712)">
      <stop
         stop-color="#3CA0D2"
         id="stop372" />
      <stop
         offset="1"
         stop-color="#48DCA6"
         id="stop374" />
    </linearGradient>
    <filter
       id="filter8_d_2_71"
       x="864.13702"
       y="1127.14"
       width="93.698601"
       height="109.726"
       filterUnits="userSpaceOnUse"
       color-interpolation-filters="sRGB">
      <feFlood
         flood-opacity="0"
         result="BackgroundImageFix"
         id="feFlood288" />
      <feColorMatrix
         in="SourceAlpha"
         type="matrix"
         values="0 0 0 0 0 0 0 0 0 0 0 0 0 0 0 0 0 0 127 0"
         result="hardAlpha"
         id="feColorMatrix290" />
      <feOffset
         id="feOffset292" />
      <feGaussianBlur
         stdDeviation="4.93151"
         id="feGaussianBlur294" />
      <feComposite
         in2="hardAlpha"
         operator="out"
         id="feComposite296" />
      <feColorMatrix
         type="matrix"
         values="0 0 0 0 0 0 0 0 0 0 0 0 0 0 0 0 0 0 0.05 0"
         id="feColorMatrix298" />
      <feBlend
         mode="normal"
         in2="BackgroundImageFix"
         result="effect1_dropShadow_2_71"
         id="feBlend300" />
      <feBlend
         mode="normal"
         in="SourceGraphic"
         in2="effect1_dropShadow_2_71"
         result="shape"
         id="feBlend302" />
    </filter>
    <filter
       id="filter9_d_2_71"
       x="861.67102"
       y="1132.0699"
       width="98.630096"
       height="98.630203"
       filterUnits="userSpaceOnUse"
       color-interpolation-filters="sRGB">
      <feFlood
         flood-opacity="0"
         result="BackgroundImageFix"
         id="feFlood305" />
      <feColorMatrix
         in="SourceAlpha"
         type="matrix"
         values="0 0 0 0 0 0 0 0 0 0 0 0 0 0 0 0 0 0 127 0"
         result="hardAlpha"
         id="feColorMatrix307" />
      <feOffset
         id="feOffset309" />
      <feGaussianBlur
         stdDeviation="6.16438"
         id="feGaussianBlur311" />
      <feComposite
         in2="hardAlpha"
         operator="out"
         id="feComposite313" />
      <feColorMatrix
         type="matrix"
         values="0 0 0 0 0 0 0 0 0 0 0 0 0 0 0 0 0 0 0.08 0"
         id="feColorMatrix315" />
      <feBlend
         mode="normal"
         in2="BackgroundImageFix"
         result="effect1_dropShadow_2_71"
         id="feBlend317" />
      <feBlend
         mode="normal"
         in="SourceGraphic"
         in2="effect1_dropShadow_2_71"
         result="shape"
         id="feBlend319" />
    </filter>
    <linearGradient
       id="paint11_linear_2_71"
       x1="898.16998"
       y1="1179.05"
       x2="920"
       y2="1198.1"
       gradientUnits="userSpaceOnUse"
       gradientTransform="translate(-90.836864,-20.762712)">
      <stop
         stop-color="#3CA0D2"
         id="stop377" />
      <stop
         offset="1"
         stop-color="#48DCA6"
         id="stop379" />
    </linearGradient>
    <linearGradient
       id="paint12_linear_2_71"
       x1="903.289"
       y1="1161.36"
       x2="920.836"
       y2="1170.52"
       gradientUnits="userSpaceOnUse"
       gradientTransform="translate(-90.836864,-20.762712)">
      <stop
         stop-color="#3CA0D2"
         id="stop382" />
      <stop
         offset="1"
         stop-color="#48DCA6"
         id="stop384" />
    </linearGradient>
  </defs>
  <g
     id="layer1">
    <g
       id="g704"
       transform="matrix(0.26458333,0,0,0.26458333,-206.74319,-292.23431)">
      <ellipse
         cx="831.51917"
         cy="1148.5073"
         rx="43.457298"
         ry="43.756302"
         fill="#ffffff"
         id="ellipse124" />
      <path
         d="m 790.30714,1131.1973 c 5.99,-6.6 10.781,-14.35 17.56,-20.08 m -18.657,27.88 c 10.656,-10.53 18.931,-22.15 22.06,-30.68 m -21.808,33.96 c 7.053,-12.6 14.828,-19.95 27.204,-31.61 m -27.325,33.77 c 9.827,-12.55 19.586,-21.93 28.949,-35.17 m -31.127,40.49 c 15.846,-18.27 29.099,-33.41 38.116,-42.93 m -36.545,44.06 c 9.668,-12.34 19.866,-24.76 37.763,-45.18 m -36.35,47.88 c 11.325,-13.48 23.091,-31.65 37.223,-49.35 m -36.577,52.16 c 16.784,-18.76 32.032,-38.89 39.589,-51.89 m -39.34,56.35 c 7.492,-15.14 19.082,-26.9 41.83,-55.46 m -40.633,56.11 c 12.813,-18.5 30.003,-36.6 46.685,-56.09 m -45.654,59.77 c 15.238,-21.91 34.799,-43.17 44.627,-58.9 m -43.995,60.97 c 12.76,-18.7 24.637,-33.81 49.119,-62.09 m -49.089,64.07 c 14.059,-21.2 29.905,-37.34 47.845,-63.8 m -48.951,64.59 c 17.546,-20.11 31.291,-37.46 51.426,-60.66 m -47.862,61.9 c 10.19,-11.68 19.662,-23.14 52.834,-63 m -51.448,64.66 c 17.121,-19.76 38.384,-44.4 54.368,-63.23 m -52.141,65.71 c 18.794,-25.15 35.611,-46.06 52.985,-63.21 m -54.439,66.71 c 20.676,-26.48 44.039,-54.51 54.096,-69.08 m -50.535,67.11 c 12.342,-13.39 25.617,-29.12 53.069,-65.83 m -51.708,68.76 c 20.038,-22.13 36.746,-43.89 53.854,-65.71 m -54.014,65.58 c 18.698,-16.31 35.893,-36.72 55.121,-63.8 m -52.972,65.43 c 21.767,-22.29 40.191,-45.73 55.735,-66.01 m -53.522,67.42 c 22.786,-23.17 42.832,-51.46 54.978,-65.62 m -55.532,67.89 c 12.586,-16.96 28.966,-32.48 56.316,-67.84 m -53.085,67.86 c 14.366,-16.46 27.618,-31.61 54.9,-66.5 m -51.396,68.69 c 16.432,-18.74 34.628,-43.17 53.619,-63.25 m -53.366,66.81 c 15.755,-19.59 28.117,-38.65 53.707,-68.17 m -51.034,66.3 c 11.028,-16.17 27.98,-30.94 51.752,-62.7 m -51.249,65.01 c 15.984,-22.77 33.564,-40.12 51.077,-65.4 m -47.464,64.88 c 17.721,-21.1 38.061,-45.98 50.639,-61.49 m -48.261,60.88 c 8.419,-11.08 22.078,-23.53 48.597,-57.31 m -47.95,58.97 c 15.325,-18.23 33.906,-40.97 49.306,-59.35 m -45.219,60.28 c 16.358,-22.71 30.58,-42.09 44.346,-54.6 m -43.163,55.81 c 14.607,-16.36 27.289,-31.41 43.593,-55.05 m -41.666,55.36 c 12.412,-13.74 20.235,-27.25 44.554,-51.98 m -40.406,49.83 c 15.292,-15.57 28.412,-29.84 38.834,-50.7 m -36.938,50.95 c 10.528,-16.43 22.086,-31.1 36.547,-44.33 m -33.481,42.69 c 14.839,-15.13 25.623,-30.45 33.943,-41.08 m -29.028,41.37 c 9.75,-15.11 20.773,-27.84 32.02,-36.37 m -28.742,35.83 c 8.374,-11.96 20.426,-24.33 27.554,-35.01 m -23.587,30.5 c 8.394,-8.76 13.552,-15.7 21.77,-21.65 m -17.924,19.37 c 5.139,-4.57 10.997,-12.47 16.557,-16.72 m -72.128,-49.21 z"
         stroke="url(#paint10_linear_2_71)"
         stroke-width="0.5"
         stroke-linecap="round"
         id="path126"
         style="stroke:url(#paint10_linear_2_71)" />
      <g
         filter="url(#filter8_d_2_71)"
         id="g132"
         transform="translate(-90.836864,-20.762712)">
        <g
           filter="url(#filter9_d_2_71)"
           id="g130">
          <circle
             cx="910.98602"
             cy="1181.38"
             r="36.986301"
             fill="#ffffff"
             id="circle128" />
        </g>
      </g>
      <path
         d="m 819.54714,1174.2873 c -3.769,0 -7.543,0 -11.313,0 -1.986,0 -3.486,-1.1 -3.94,-2.92 -0.151,-0.57 -0.172,-1.17 -0.06,-1.75 0.458,-1.96 0.936,-3.91 1.54,-5.82 0.518,-1.7 1.38,-3.26 2.532,-4.61 1.151,-1.34 2.567,-2.44 4.16,-3.21 0.141,-0.09 0.308,-0.13 0.476,-0.12 0.167,0.01 0.326,0.08 0.452,0.19 1.813,1.29 3.984,1.98 6.21,1.98 2.226,0 4.397,-0.69 6.21,-1.98 0.129,-0.11 0.29,-0.17 0.458,-0.18 0.169,-0.01 0.335,0.04 0.474,0.13 3.753,1.95 6.052,5 7.057,9.08 0.332,1.33 0.689,2.66 1.034,3.99 0.766,2.94 -1.002,5.23 -4.054,5.24 z"
         fill="url(#paint11_linear_2_71)"
         id="path134"
         style="fill:url(#paint11_linear_2_71)" />
      <path
         d="m 828.52114,1147.1973 c 0.029,4.86 -2.679,7.84 -8.872,8.95 -4.889,0.05 -9.574,-3.57 -8.987,-8.91 0,-4.9 4.054,-8.51 8.942,-8.95 6.129,-0.57 8.893,4 8.917,8.91 z"
         fill="url(#paint12_linear_2_71)"
         id="path136"
         style="fill:url(#paint12_linear_2_71)" />
      <path
         d="m 805.34814,1170.8373 c 0.695,-4.66 2.832,-8.99 6.112,-12.38 0.142,-0.16 0.317,-0.28 0.513,-0.37 0.197,-0.08 0.409,-0.12 0.622,-0.11 1.171,0.21 2.225,0.66 3.409,0.81 3.047,0.53 6.176,0.34 9.136,-0.55 0.568,-0.15 1.216,-0.51 1.808,-0.29 2.225,1.28 3.863,3.48 4.965,5.77 1.003,2.15 1.45,4.52 1.302,6.89 0,0.78 -0.155,1.84 -1.046,2.13 -6.003,1.52 -12.521,0.54 -18.646,0.29 l -4.645,-0.29 c -1.131,-0.07 -2.432,-0.36 -3.052,-1.43 -0.204,-0.34 -0.286,-0.73 -0.231,-1.12 -0.146,1.75 1.84,2.46 3.291,2.43 6.129,0.16 12.497,0.85 18.605,0.48 1.533,-0.09 3.053,-0.33 4.54,-0.72 0.762,-0.26 0.762,-1.11 0.811,-1.81 0.049,-0.76 0.031,-1.53 -0.053,-2.29 -0.349,-3.06 -1.674,-5.93 -3.778,-8.18 -0.526,-0.55 -1.098,-1.07 -1.71,-1.53 -0.125,-0.11 -0.274,-0.2 -0.437,-0.25 -0.163,-0.05 -0.335,-0.07 -0.504,-0.04 -0.34,0.06 -0.717,0.21 -1.094,0.32 -3.015,0.91 -6.204,1.08 -9.299,0.5 -1.139,-0.16 -2.265,-0.63 -3.368,-0.85 -0.177,-0.01 -0.355,0.02 -0.518,0.09 -0.163,0.07 -0.308,0.18 -0.422,0.32 -3.297,3.32 -5.493,7.58 -6.291,12.19 z"
         fill="#454545"
         id="path138" />
      <path
         d="m 822.81914,1163.9473 c 1.485,-0.35 3.023,-0.43 4.536,-0.22 -1.486,0.35 -3.023,0.42 -4.536,0.22 z"
         fill="#454545"
         id="path140" />
      <path
         d="m 822.63214,1164.2173 c 0.041,1.07 0.156,2.14 0.345,3.19 0.02,0.23 0.124,0.44 0.292,0.6 0.714,0.27 1.473,0.4 2.237,0.38 2.756,0.03 2.246,-2.9 2.254,-4.81 0.36,2.14 0.835,5.16 -2.25,5.22 -0.811,-0.04 -1.735,-0.09 -2.46,-0.51 -0.226,-0.22 -0.362,-0.51 -0.381,-0.81 -0.136,-1.08 -0.149,-2.17 -0.037,-3.25 z"
         fill="#454545"
         id="path142" />
      <path
         d="m 815.29914,1149.8373 c 2.574,2.33 6.996,2.37 8.743,-0.9 l 0.276,0.22 c -1.832,1.55 -4.284,2.56 -6.717,2.23 -0.421,-0.07 -0.818,-0.25 -1.155,-0.51 -0.344,-0.29 -0.531,-0.66 -0.81,-0.81 l 0.259,-0.2 c 0.199,0.81 1.159,1.13 1.901,1.37 2.383,0.81 5.675,0.6 6.891,-1.97 -0.332,0.85 -0.954,1.55 -1.755,1.98 -1.978,1.12 -4.524,0.75 -6.486,-0.18 -0.217,-0.11 -0.409,-0.27 -0.563,-0.46 -0.155,-0.19 -0.268,-0.41 -0.333,-0.64 l -0.085,-0.41 0.345,0.19 c 0.405,0.24 0.604,0.63 0.884,0.81 0.281,0.23 0.613,0.39 0.968,0.45 2.274,0.28 4.67,-0.67 6.409,-2.12 l 0.697,-0.6 c -1.662,4.09 -6.518,4.46 -9.481,1.55 z"
         fill="#ffffff"
         id="path144" />
      <path
         d="m 814.65914,1146.2373 c 0.033,-1.47 1.958,-2.28 3.077,-1.33 0.36,0.26 0.603,0.66 0.677,1.11 -0.184,-0.36 -0.466,-0.65 -0.812,-0.84 -0.346,-0.2 -0.742,-0.29 -1.139,-0.27 -0.397,0.03 -0.778,0.17 -1.098,0.4 -0.32,0.24 -0.565,0.56 -0.705,0.93 z"
         fill="#ffffff"
         id="path146" />
      <path
         d="m 821.40314,1146.0273 c -0.042,-0.23 -0.012,-0.46 0.085,-0.67 0.097,-0.21 0.258,-0.39 0.458,-0.5 0.402,-0.25 0.873,-0.35 1.339,-0.29 0.466,0.06 0.898,0.27 1.227,0.61 0.334,0.3 0.558,0.71 0.636,1.15 -0.211,-0.36 -0.495,-0.67 -0.834,-0.91 -0.88,-0.7 -2.643,-0.71 -2.911,0.61 z"
         fill="#ffffff"
         id="path148" />
    </g>
  </g>
</svg>
