<?xml version="1.0" encoding="UTF-8" standalone="no"?>
<!-- Created with Inkscape (http://www.inkscape.org/) -->

<svg
   width="25mm"
   height="25mm"
   viewBox="0 0 25 25"
   version="1.1"
   id="svg742"
   xmlns="http://www.w3.org/2000/svg"
   xmlns:svg="http://www.w3.org/2000/svg">
  <defs
     id="defs739">
    <linearGradient
       id="paint3_linear_2_71"
       x1="727.24701"
       y1="429.88"
       x2="815.41101"
       y2="475.884"
       gradientUnits="userSpaceOnUse">
      <stop
         stop-color="#3CA0D2"
         id="stop337" />
      <stop
         offset="1"
         stop-color="#48DCA6"
         id="stop339" />
    </linearGradient>
    <filter
       id="filter2_d_2_71"
       x="704.13702"
       y="420.13699"
       width="93.698601"
       height="109.726"
       filterUnits="userSpaceOnUse"
       color-interpolation-filters="sRGB">
      <feFlood
         flood-opacity="0"
         result="BackgroundImageFix"
         id="feFlood186" />
      <feColorMatrix
         in="SourceAlpha"
         type="matrix"
         values="0 0 0 0 0 0 0 0 0 0 0 0 0 0 0 0 0 0 127 0"
         result="hardAlpha"
         id="feColorMatrix188" />
      <feOffset
         id="feOffset190" />
      <feGaussianBlur
         stdDeviation="4.93151"
         id="feGaussianBlur192" />
      <feComposite
         in2="hardAlpha"
         operator="out"
         id="feComposite194" />
      <feColorMatrix
         type="matrix"
         values="0 0 0 0 0 0 0 0 0 0 0 0 0 0 0 0 0 0 0.05 0"
         id="feColorMatrix196" />
      <feBlend
         mode="normal"
         in2="BackgroundImageFix"
         result="effect1_dropShadow_2_71"
         id="feBlend198" />
      <feBlend
         mode="normal"
         in="SourceGraphic"
         in2="effect1_dropShadow_2_71"
         result="shape"
         id="feBlend200" />
    </filter>
    <filter
       id="filter3_d_2_71"
       x="701.67102"
       y="425.069"
       width="98.630096"
       height="98.630203"
       filterUnits="userSpaceOnUse"
       color-interpolation-filters="sRGB">
      <feFlood
         flood-opacity="0"
         result="BackgroundImageFix"
         id="feFlood203" />
      <feColorMatrix
         in="SourceAlpha"
         type="matrix"
         values="0 0 0 0 0 0 0 0 0 0 0 0 0 0 0 0 0 0 127 0"
         result="hardAlpha"
         id="feColorMatrix205" />
      <feOffset
         id="feOffset207" />
      <feGaussianBlur
         stdDeviation="6.16438"
         id="feGaussianBlur209" />
      <feComposite
         in2="hardAlpha"
         operator="out"
         id="feComposite211" />
      <feColorMatrix
         type="matrix"
         values="0 0 0 0 0 0 0 0 0 0 0 0 0 0 0 0 0 0 0.08 0"
         id="feColorMatrix213" />
      <feBlend
         mode="normal"
         in2="BackgroundImageFix"
         result="effect1_dropShadow_2_71"
         id="feBlend215" />
      <feBlend
         mode="normal"
         in="SourceGraphic"
         in2="effect1_dropShadow_2_71"
         result="shape"
         id="feBlend217" />
    </filter>
    <linearGradient
       id="paint4_linear_2_71"
       x1="735.49799"
       y1="459.28699"
       x2="770.11102"
       y2="483.883"
       gradientUnits="userSpaceOnUse">
      <stop
         stop-color="#3CA0D2"
         id="stop342" />
      <stop
         offset="1"
         stop-color="#48DCA6"
         id="stop344" />
    </linearGradient>
  </defs>
  <g
     id="layer1">
    <g
       id="g694"
       transform="matrix(0.26458333,0,0,0.26458333,-188.72999,-110.38149)">
      <ellipse
         cx="762.35602"
         cy="462.27399"
         rx="43.457298"
         ry="43.756302"
         fill="#ffffff"
         id="ellipse48" />
      <path
         d="m 721.144,444.956 c 5.99,-6.595 10.781,-14.341 17.56,-20.08 m -18.657,27.887 c 10.656,-10.528 18.931,-22.149 22.06,-30.684 m -21.808,33.96 c 7.053,-12.597 14.828,-19.951 27.204,-31.608 m -27.325,33.771 c 9.827,-12.55 19.586,-21.93 28.949,-35.168 M 718,463.524 c 15.846,-18.276 29.099,-33.415 38.116,-42.932 m -36.545,44.055 c 9.668,-12.332 19.866,-24.761 37.763,-45.182 m -36.35,47.889 C 732.309,453.867 744.075,435.701 758.207,418 m -36.577,52.155 c 16.784,-18.756 32.032,-38.881 39.589,-51.883 m -39.34,56.344 c 7.492,-15.135 19.082,-26.898 41.83,-55.453 m -40.633,56.109 c 12.813,-18.504 30.003,-36.601 46.685,-56.095 m -45.654,59.776 c 15.238,-21.911 34.799,-43.171 44.627,-58.902 m -43.995,60.97 c 12.76,-18.7 24.637,-33.814 49.119,-62.094 m -49.089,64.071 c 14.059,-21.198 29.905,-37.342 47.845,-63.797 m -48.951,64.592 c 17.546,-20.117 31.291,-37.467 51.426,-60.667 m -47.862,61.905 c 10.19,-11.68 19.662,-23.142 52.834,-62.998 m -51.448,64.662 c 17.121,-19.765 38.384,-44.408 54.368,-63.237 m -52.141,65.709 c 18.794,-25.149 35.611,-46.061 52.985,-63.205 m -54.439,66.706 c 20.676,-26.483 44.039,-54.504 54.096,-69.077 m -50.535,67.107 c 12.342,-13.392 25.617,-29.113 53.069,-65.83 m -51.708,68.763 c 20.038,-22.127 36.746,-43.894 53.854,-65.708 m -54.014,65.581 c 18.698,-16.311 35.893,-36.72 55.121,-63.801 m -52.972,65.424 c 21.767,-22.291 40.191,-45.731 55.735,-66.004 m -53.522,67.418 c 22.786,-23.171 42.832,-51.462 54.978,-65.623 m -55.532,67.894 c 12.586,-16.962 28.966,-32.487 56.316,-67.843 m -53.085,67.861 c 14.366,-16.464 27.618,-31.61 54.9,-66.501 m -51.396,68.693 c 16.432,-18.746 34.628,-43.169 53.619,-63.256 m -53.366,66.81 c 15.755,-19.582 28.117,-38.644 53.707,-68.165 m -51.034,66.294 c 11.028,-16.165 27.98,-30.938 51.752,-62.698 m -51.249,65.01 c 15.984,-22.767 33.564,-40.116 51.077,-65.401 m -47.464,64.885 c 17.721,-21.104 38.061,-45.985 50.639,-61.488 m -48.261,60.88 c 8.419,-11.082 22.078,-23.537 48.597,-57.315 m -47.95,58.969 c 15.325,-18.226 33.906,-40.967 49.306,-59.345 m -45.219,60.276 c 16.358,-22.711 30.58,-42.093 44.346,-54.6 m -43.163,55.81 c 14.607,-16.354 27.289,-31.407 43.593,-55.049 M 761.955,508 c 12.412,-13.736 20.235,-27.255 44.554,-51.976 m -40.406,49.823 c 15.292,-15.567 28.412,-29.842 38.834,-50.696 m -36.938,50.952 c 10.528,-16.43 22.086,-31.106 36.547,-44.333 m -33.481,42.688 c 14.839,-15.128 25.623,-30.453 33.943,-41.08 m -29.028,41.375 c 9.75,-15.11 20.773,-27.844 32.02,-36.375 m -28.742,35.829 c 8.374,-11.959 20.426,-24.327 27.554,-35.002 m -23.587,30.494 c 8.394,-8.764 13.552,-15.695 21.77,-21.652 m -17.924,19.378 c 5.139,-4.573 10.997,-12.477 16.557,-16.721 M 731.5,431.488 Z"
         stroke="url(#paint3_linear_2_71)"
         stroke-width="0.5"
         stroke-linecap="round"
         id="path50"
         style="stroke:url(#paint3_linear_2_71)" />
      <g
         filter="url(#filter2_d_2_71)"
         id="g56">
        <g
           filter="url(#filter3_d_2_71)"
           id="g54">
          <circle
             cx="750.98602"
             cy="474.384"
             r="36.986301"
             fill="#ffffff"
             id="circle52" />
        </g>
      </g>
      <path
         d="m 736.855,479.671 -1.363,6.256 7.114,-3.676 c 0,0 13.622,5.599 25.729,-3.657 12.107,-9.256 -3.178,-19.841 -3.178,-19.841 0,0 -4.389,-5.35 -17.858,-2.855 -13.47,2.495 -15.438,9.453 -15.438,9.453 0,0 -3.33,8.064 4.994,14.32 z"
         fill="url(#paint4_linear_2_71)"
         id="path58"
         style="fill:url(#paint4_linear_2_71)" />
      <path
         d="m 741.938,469.342 c -0.148,0.052 -0.275,0.148 -0.364,0.276 -0.09,0.128 -0.136,0.281 -0.134,0.437 0.446,0.071 1.188,0.342 1.73,0.152 0.134,-0.032 0.261,-0.091 0.372,-0.174 0.11,-0.082 0.203,-0.186 0.273,-0.305 0.069,-0.12 0.114,-0.252 0.13,-0.389 0.017,-0.137 0.006,-0.276 -0.032,-0.409 -0.49,-0.794 -1.626,0.022 -2.12,0.453 -1.114,1.173 0.62,1.674 1.581,1.329 0.267,-0.061 0.52,-0.175 0.743,-0.334 0.88,-0.657 0.167,-2.183 -0.858,-2.228 -0.526,-0.02 -1.043,0.142 -1.464,0.459 -0.42,0.318 -0.717,0.771 -0.841,1.283 -0.082,1.076 1.247,1.626 2.19,1.243 0.962,-0.3 1.964,-1.21 1.816,-2.279 -0.02,-0.237 -0.109,-0.462 -0.255,-0.649 -0.147,-0.187 -0.345,-0.326 -0.57,-0.402 -0.95,-0.237 -2.346,0.067 -3.215,0.524 -0.869,0.456 -1.288,1.756 -0.319,2.409 0.713,0.436 1.538,0.655 2.374,0.631 0.835,-0.024 1.646,-0.289 2.334,-0.764 2.097,-1.957 -1.857,-3.773 -3.576,-3.446 -1.708,0.071 -3.078,2.384 -1.63,3.639 1.378,1.006 3.672,1.236 4.927,-0.104 -0.392,0.476 -0.929,0.812 -1.529,0.957 -1.385,0.32 -3.479,0 -4.181,-1.395 -0.17,-0.464 -0.202,-0.967 -0.092,-1.448 0.109,-0.482 0.355,-0.922 0.708,-1.266 1.742,-2.024 7.563,-0.279 6.427,2.736 -1.114,2.227 -5.68,2.424 -6.887,0.211 -0.806,-1.926 1.259,-3.204 2.892,-3.386 0.899,-0.189 2.228,-0.241 2.885,0.665 1.593,2.276 -1.741,5.09 -3.954,3.883 -0.327,-0.174 -0.596,-0.439 -0.775,-0.763 -0.178,-0.325 -0.259,-0.694 -0.231,-1.063 0.282,-2.12 3.712,-3.342 4.592,-0.991 0.147,0.331 0.178,0.701 0.088,1.052 -0.089,0.351 -0.294,0.661 -0.581,0.882 -0.955,0.683 -3.29,0.843 -3.342,-0.743 0.019,-1.058 2.536,-2.446 3.078,-1.18 0.046,0.159 0.059,0.326 0.038,0.491 -0.022,0.165 -0.076,0.323 -0.161,0.466 -0.085,0.143 -0.198,0.266 -0.333,0.364 -0.135,0.097 -0.288,0.165 -0.45,0.201 -0.625,0.082 -1.26,-0.017 -1.83,-0.286 -0.006,-0.169 0.047,-0.334 0.148,-0.469 0.101,-0.135 0.245,-0.231 0.409,-0.274 z"
         fill="#ffffff"
         id="path60" />
      <path
         d="m 751.268,469.342 c -0.147,0.052 -0.274,0.148 -0.364,0.276 -0.089,0.128 -0.136,0.281 -0.133,0.437 0.445,0.07 1.188,0.342 1.73,0.152 0.134,-0.032 0.261,-0.091 0.371,-0.174 0.111,-0.082 0.204,-0.186 0.274,-0.306 0.069,-0.119 0.113,-0.251 0.13,-0.388 0.017,-0.137 0.006,-0.276 -0.032,-0.409 -0.491,-0.795 -1.627,0.022 -2.12,0.453 -1.114,1.173 0.62,1.674 1.581,1.329 0.267,-0.061 0.52,-0.175 0.743,-0.334 0.88,-0.657 0.167,-2.183 -0.858,-2.228 -0.526,-0.02 -1.043,0.142 -1.464,0.459 -0.42,0.317 -0.718,0.771 -0.841,1.283 -0.082,1.076 1.247,1.626 2.19,1.243 0.962,-0.3 1.96,-1.21 1.816,-2.279 -0.02,-0.237 -0.11,-0.463 -0.257,-0.65 -0.147,-0.187 -0.346,-0.326 -0.571,-0.401 -0.947,-0.238 -2.343,0.067 -3.216,0.524 -0.872,0.456 -1.288,1.756 -0.315,2.409 1.333,0.895 3.482,0.835 4.722,-0.145 2.102,-1.956 -1.856,-3.772 -3.571,-3.445 -1.708,0.07 -3.078,2.383 -1.63,3.638 1.377,1.006 3.668,1.237 4.927,-0.104 -0.393,0.477 -0.93,0.813 -1.53,0.958 -1.389,0.32 -3.479,0 -4.181,-1.396 -0.17,-0.463 -0.203,-0.966 -0.093,-1.448 0.109,-0.482 0.356,-0.921 0.71,-1.266 1.741,-2.023 7.563,-0.278 6.426,2.737 -1.113,2.227 -5.68,2.424 -6.887,0.211 -0.805,-1.927 1.259,-3.204 2.893,-3.386 0.898,-0.189 2.227,-0.241 2.884,0.665 1.582,2.283 -1.759,5.097 -3.987,3.891 -0.327,-0.174 -0.595,-0.438 -0.773,-0.762 -0.179,-0.324 -0.258,-0.693 -0.229,-1.061 0.282,-2.12 3.69,-3.342 4.592,-0.992 0.147,0.332 0.177,0.702 0.088,1.053 -0.09,0.351 -0.294,0.661 -0.582,0.882 -0.954,0.683 -3.289,0.843 -3.341,-0.743 0,-1.058 2.536,-2.446 3.078,-1.18 0.046,0.159 0.059,0.326 0.037,0.491 -0.021,0.165 -0.076,0.323 -0.16,0.466 -0.085,0.143 -0.199,0.266 -0.333,0.363 -0.135,0.098 -0.288,0.166 -0.45,0.202 -0.625,0.082 -1.261,-0.017 -1.831,-0.286 -0.005,-0.169 0.047,-0.334 0.149,-0.469 0.101,-0.135 0.245,-0.232 0.408,-0.274 z"
         fill="#ffffff"
         id="path62" />
      <path
         d="m 761.102,469.342 c -0.147,0.052 -0.274,0.148 -0.364,0.276 -0.089,0.128 -0.136,0.281 -0.133,0.437 0.449,0.07 1.188,0.342 1.73,0.152 0.134,-0.032 0.261,-0.091 0.372,-0.174 0.11,-0.082 0.203,-0.186 0.273,-0.306 0.069,-0.119 0.114,-0.251 0.13,-0.388 0.017,-0.137 0.006,-0.276 -0.032,-0.409 -0.49,-0.795 -1.627,0.022 -2.12,0.453 -1.114,1.173 0.62,1.674 1.581,1.329 0.267,-0.061 0.52,-0.175 0.743,-0.334 0.88,-0.657 0.171,-2.183 -0.854,-2.228 -0.527,-0.021 -1.045,0.14 -1.466,0.458 -0.421,0.317 -0.719,0.771 -0.843,1.284 -0.082,1.076 1.251,1.626 2.19,1.243 0.962,-0.3 1.964,-1.21 1.816,-2.279 -0.02,-0.237 -0.109,-0.462 -0.255,-0.649 -0.147,-0.187 -0.345,-0.327 -0.57,-0.402 -0.95,-0.238 -2.346,0.067 -3.215,0.524 -0.869,0.456 -1.288,1.756 -0.319,2.409 0.717,0.438 1.545,0.657 2.385,0.631 0.839,-0.025 1.653,-0.295 2.341,-0.776 2.098,-1.956 -1.856,-3.772 -3.575,-3.445 -1.708,0.07 -3.078,2.383 -1.63,3.638 1.377,1.006 3.672,1.237 4.927,-0.104 -0.393,0.477 -0.93,0.813 -1.53,0.958 -1.385,0.32 -3.479,0 -4.18,-1.396 -0.17,-0.463 -0.202,-0.966 -0.093,-1.448 0.109,-0.481 0.356,-0.921 0.709,-1.266 1.745,-2.023 7.563,-0.278 6.427,2.737 -1.114,2.227 -5.681,2.424 -6.888,0.211 -0.805,-1.927 1.259,-3.204 2.893,-3.386 0.898,-0.189 2.227,-0.241 2.884,0.665 1.597,2.276 -1.741,5.09 -3.954,3.883 -0.326,-0.174 -0.595,-0.438 -0.773,-0.762 -0.179,-0.324 -0.26,-0.692 -0.233,-1.061 0.282,-2.12 3.713,-3.341 4.593,-0.991 0.146,0.331 0.177,0.701 0.088,1.052 -0.088,0.35 -0.292,0.661 -0.578,0.882 -0.958,0.683 -3.293,0.843 -3.342,-0.742 0.023,-1.058 2.536,-2.447 3.078,-1.181 0.046,0.16 0.059,0.327 0.038,0.492 -0.021,0.164 -0.076,0.323 -0.161,0.465 -0.085,0.143 -0.198,0.267 -0.333,0.364 -0.134,0.097 -0.288,0.166 -0.45,0.201 -0.623,0.083 -1.258,-0.016 -1.826,-0.286 -0.006,-0.168 0.046,-0.333 0.146,-0.468 0.101,-0.134 0.244,-0.231 0.407,-0.274 z"
         fill="#ffffff"
         id="path64" />
      <path
         d="m 738.857,479.092 -1.485,4.492 -0.052,-0.033 c 1.555,-1.477 3.549,-2.405 5.68,-2.644 2.142,-0.23 4.236,0.308 6.312,0.52 2.092,0.27 4.204,0.357 6.311,0.26 5.198,-0.227 10.608,-2.402 13.411,-6.98 1.247,-1.934 2.32,-3.308 1.54,-5.725 -0.608,-2.006 -1.651,-3.853 -3.055,-5.409 -0.182,-0.197 -0.639,-0.658 -0.817,-0.847 -0.178,-0.189 -0.683,-0.62 -0.872,-0.787 -0.609,-0.496 -1.242,-0.961 -1.898,-1.392 -6.775,-4.422 -15.489,-3.535 -22.744,-0.709 -4.6,1.897 -7.796,2.598 -7.796,8.401 -0.063,4.147 1.559,8.666 5.246,10.897 -3.713,-2.19 -5.425,-6.72 -5.421,-10.897 -0.052,-5.858 3.227,-6.716 7.886,-8.635 7.303,-2.881 16.15,-3.791 23.041,0.642 0.624,0.408 1.366,0.939 1.942,1.411 0.189,0.174 0.713,0.635 0.898,0.802 0.186,0.167 0.642,0.675 0.832,0.869 1.432,1.605 2.493,3.507 3.107,5.569 0.787,2.524 -0.274,3.961 -1.611,5.988 -2.866,4.634 -8.379,6.843 -13.655,7.054 -3.186,0.175 -6.353,-0.26 -9.49,-0.742 -3.119,-0.557 -6.464,0.185 -8.795,2.409 l -0.097,0.089 0.045,-0.122 1.537,-4.455 z"
         fill="#454545"
         id="path66" />
    </g>
  </g>
</svg>
