<?xml version="1.0" encoding="UTF-8" standalone="no"?>
<!-- Created with Inkscape (http://www.inkscape.org/) -->

<svg
   width="25mm"
   height="25mm"
   viewBox="0 0 25 25"
   version="1.1"
   id="svg697"
   xmlns:inkscape="http://www.inkscape.org/namespaces/inkscape"
   xmlns:sodipodi="http://sodipodi.sourceforge.net/DTD/sodipodi-0.dtd"
   xmlns="http://www.w3.org/2000/svg"
   xmlns:svg="http://www.w3.org/2000/svg">
  <sodipodi:namedview
     id="namedview699"
     pagecolor="#ffffff"
     bordercolor="#000000"
     borderopacity="0.25"
     inkscape:showpageshadow="2"
     inkscape:pageopacity="0.0"
     inkscape:pagecheckerboard="true"
     inkscape:deskcolor="#d1d1d1"
     inkscape:document-units="mm"
     showgrid="false" />
  <defs
     id="defs694">
    <linearGradient
       id="paint5_linear_2_71"
       x1="707.24701"
       y1="671.38"
       x2="795.41101"
       y2="717.38397"
       gradientUnits="userSpaceOnUse">
      <stop
         stop-color="#3CA0D2"
         id="stop347" />
      <stop
         offset="1"
         stop-color="#48DCA6"
         id="stop349" />
    </linearGradient>
    <filter
       id="filter4_d_2_71"
       x="684.13702"
       y="661.63702"
       width="93.698601"
       height="109.726"
       filterUnits="userSpaceOnUse"
       color-interpolation-filters="sRGB">
      <feFlood
         flood-opacity="0"
         result="BackgroundImageFix"
         id="feFlood220" />
      <feColorMatrix
         in="SourceAlpha"
         type="matrix"
         values="0 0 0 0 0 0 0 0 0 0 0 0 0 0 0 0 0 0 127 0"
         result="hardAlpha"
         id="feColorMatrix222" />
      <feOffset
         id="feOffset224" />
      <feGaussianBlur
         stdDeviation="4.93151"
         id="feGaussianBlur226" />
      <feComposite
         in2="hardAlpha"
         operator="out"
         id="feComposite228" />
      <feColorMatrix
         type="matrix"
         values="0 0 0 0 0 0 0 0 0 0 0 0 0 0 0 0 0 0 0.05 0"
         id="feColorMatrix230" />
      <feBlend
         mode="normal"
         in2="BackgroundImageFix"
         result="effect1_dropShadow_2_71"
         id="feBlend232" />
      <feBlend
         mode="normal"
         in="SourceGraphic"
         in2="effect1_dropShadow_2_71"
         result="shape"
         id="feBlend234" />
    </filter>
    <filter
       id="filter5_d_2_71"
       x="681.67102"
       y="666.56897"
       width="98.630096"
       height="98.630203"
       filterUnits="userSpaceOnUse"
       color-interpolation-filters="sRGB">
      <feFlood
         flood-opacity="0"
         result="BackgroundImageFix"
         id="feFlood237" />
      <feColorMatrix
         in="SourceAlpha"
         type="matrix"
         values="0 0 0 0 0 0 0 0 0 0 0 0 0 0 0 0 0 0 127 0"
         result="hardAlpha"
         id="feColorMatrix239" />
      <feOffset
         id="feOffset241" />
      <feGaussianBlur
         stdDeviation="6.16438"
         id="feGaussianBlur243" />
      <feComposite
         in2="hardAlpha"
         operator="out"
         id="feComposite245" />
      <feColorMatrix
         type="matrix"
         values="0 0 0 0 0 0 0 0 0 0 0 0 0 0 0 0 0 0 0.08 0"
         id="feColorMatrix247" />
      <feBlend
         mode="normal"
         in2="BackgroundImageFix"
         result="effect1_dropShadow_2_71"
         id="feBlend249" />
      <feBlend
         mode="normal"
         in="SourceGraphic"
         in2="effect1_dropShadow_2_71"
         result="shape"
         id="feBlend251" />
    </filter>
    <linearGradient
       id="paint6_linear_2_71"
       x1="715.93298"
       y1="700.38702"
       x2="740.79199"
       y2="721.50201"
       gradientUnits="userSpaceOnUse">
      <stop
         stop-color="#3CA0D2"
         id="stop352" />
      <stop
         offset="1"
         stop-color="#48DCA6"
         id="stop354" />
    </linearGradient>
    <linearGradient
       id="paint7_linear_2_71"
       x1="714.11102"
       y1="721.23999"
       x2="717.93597"
       y2="734.508"
       gradientUnits="userSpaceOnUse">
      <stop
         stop-color="#3CA0D2"
         id="stop357" />
      <stop
         offset="1"
         stop-color="#48DCA6"
         id="stop359" />
    </linearGradient>
  </defs>
  <g
     inkscape:label="Слой 1"
     inkscape:groupmode="layer"
     id="layer1">
    <g
       id="g842"
       transform="matrix(0.26458333,0,0,0.26458333,-183.54985,-174.54822)">
      <ellipse
         cx="742.35602"
         cy="703.77399"
         rx="43.457298"
         ry="43.756302"
         fill="#ffffff"
         id="ellipse72" />
      <path
         d="m 701.144,686.456 c 5.99,-6.595 10.781,-14.341 17.56,-20.08 m -18.657,27.887 c 10.656,-10.528 18.931,-22.149 22.06,-30.684 m -21.808,33.96 c 7.053,-12.597 14.828,-19.951 27.204,-31.608 m -27.325,33.771 c 9.827,-12.55 19.586,-21.93 28.949,-35.168 M 698,705.024 c 15.846,-18.276 29.099,-33.415 38.116,-42.932 m -36.545,44.055 c 9.668,-12.332 19.866,-24.761 37.763,-45.182 m -36.35,47.889 c 11.325,-13.487 23.091,-31.653 37.223,-49.354 m -36.577,52.155 c 16.784,-18.756 32.032,-38.881 39.589,-51.883 m -39.34,56.344 c 7.492,-15.135 19.082,-26.898 41.83,-55.453 m -40.633,56.109 c 12.813,-18.504 30.003,-36.601 46.685,-56.095 m -45.654,59.776 c 15.238,-21.911 34.799,-43.171 44.627,-58.902 m -43.995,60.97 c 12.76,-18.7 24.637,-33.814 49.119,-62.094 m -49.089,64.071 c 14.059,-21.198 29.905,-37.342 47.845,-63.797 m -48.951,64.592 c 17.546,-20.117 31.291,-37.467 51.426,-60.667 m -47.862,61.905 c 10.19,-11.68 19.662,-23.142 52.834,-62.998 m -51.448,64.662 c 17.121,-19.765 38.384,-44.408 54.368,-63.237 m -52.141,65.709 c 18.794,-25.149 35.611,-46.061 52.985,-63.205 m -54.439,66.706 c 20.676,-26.483 44.039,-54.504 54.096,-69.077 m -50.535,67.107 c 12.342,-13.392 25.617,-29.113 53.069,-65.83 m -51.708,68.763 c 20.038,-22.127 36.746,-43.894 53.854,-65.708 m -54.014,65.581 c 18.698,-16.311 35.893,-36.72 55.121,-63.801 m -52.972,65.424 c 21.767,-22.291 40.191,-45.731 55.735,-66.004 m -53.522,67.418 c 22.786,-23.171 42.832,-51.462 54.978,-65.623 m -55.532,67.894 c 12.586,-16.962 28.966,-32.487 56.316,-67.843 m -53.085,67.861 c 14.366,-16.464 27.618,-31.61 54.9,-66.501 m -51.396,68.693 c 16.432,-18.746 34.628,-43.169 53.619,-63.256 m -53.366,66.81 c 15.755,-19.582 28.117,-38.644 53.707,-68.165 m -51.034,66.294 c 11.028,-16.165 27.98,-30.938 51.752,-62.698 m -51.249,65.01 c 15.984,-22.767 33.564,-40.116 51.077,-65.401 m -47.464,64.885 c 17.721,-21.104 38.061,-45.985 50.639,-61.488 m -48.261,60.88 c 8.419,-11.082 22.078,-23.537 48.597,-57.315 m -47.95,58.969 c 15.325,-18.226 33.906,-40.967 49.306,-59.345 m -45.219,60.276 c 16.358,-22.711 30.58,-42.093 44.346,-54.6 m -43.163,55.81 c 14.607,-16.354 27.289,-31.407 43.593,-55.049 M 741.955,749.5 c 12.412,-13.736 20.235,-27.255 44.554,-51.976 m -40.406,49.823 c 15.292,-15.567 28.412,-29.842 38.834,-50.696 m -36.938,50.952 c 10.528,-16.43 22.086,-31.106 36.547,-44.333 m -33.481,42.688 c 14.839,-15.128 25.623,-30.453 33.943,-41.08 m -29.028,41.375 c 9.75,-15.11 20.773,-27.844 32.02,-36.375 m -28.742,35.829 c 8.374,-11.959 20.426,-24.327 27.554,-35.002 m -23.587,30.494 c 8.394,-8.764 13.552,-15.695 21.77,-21.652 m -17.924,19.378 c 5.139,-4.573 10.997,-12.477 16.557,-16.721 M 711.5,672.988 Z"
         stroke="url(#paint5_linear_2_71)"
         stroke-width="0.5"
         stroke-linecap="round"
         id="path74"
         style="stroke:url(#paint5_linear_2_71)" />
      <g
         filter="url(#filter4_d_2_71)"
         id="g80">
        <g
           filter="url(#filter5_d_2_71)"
           id="g78">
          <circle
             cx="730.98602"
             cy="715.88397"
             r="36.986301"
             fill="#ffffff"
             id="circle76" />
        </g>
      </g>
      <path
         d="M 744.266,697.603 H 714.88 c -1.367,0 -2.475,1.108 -2.475,2.475 v 16.143 c 0,1.367 1.108,2.475 2.475,2.475 h 29.386 c 1.367,0 2.475,-1.108 2.475,-2.475 v -16.143 c 0,-1.367 -1.108,-2.475 -2.475,-2.475 z"
         fill="url(#paint6_linear_2_71)"
         id="path82"
         style="fill:url(#paint6_linear_2_71)" />
      <path
         d="M 749.071,720.445 H 710.22 c 0,0 -2.168,6.017 7.131,6.017 h 27.064 c 0,0 6.837,-1.955 5.382,-6.017"
         fill="url(#paint7_linear_2_71)"
         id="path84"
         style="fill:url(#paint7_linear_2_71)" />
      <path
         d="m 713.455,713.753 0.614,-11.818 c 0,-0.247 0.02,-0.49 0.044,-0.743 0.03,-0.885 0.716,-1.351 1.53,-1.479 2.914,-0.604 5.915,-0.55 8.87,-0.483 l 11.838,0.267 c 1.091,0.047 6.416,0.098 7.429,0.199 1.786,0.182 2.026,2.313 1.884,3.741 l -0.338,5.913 c -0.057,0.972 -0.199,3.488 -0.253,4.43 -0.054,0.942 -0.101,2.053 -0.675,2.924 -0.912,1.401 -2.773,1.128 -4.208,1.111 l -5.919,-0.152 c -2.178,-0.054 -12.858,-0.338 -14.796,-0.392 -0.989,0.005 -1.978,-0.072 -2.954,-0.229 -1.689,-0.25 -3.401,-1.662 -3.171,-3.499 0.04,-0.244 0.122,-0.479 0.243,-0.695 -0.117,0.216 -0.196,0.452 -0.233,0.695 -0.196,1.82 1.503,3.195 3.174,3.418 0.975,0.142 1.96,0.205 2.944,0.189 1.874,0 12.68,0.25 14.797,0.29 l 5.919,0.122 c 1.391,0 3.11,0.297 3.974,-1.013 0.746,-1.202 0.547,-2.897 0.675,-4.265 l 0.156,-2.955 0.314,-5.912 c 0.098,-1.293 0.023,-3.218 -1.594,-3.414 -0.915,-0.084 -6.338,-0.189 -7.378,-0.229 l -11.838,-0.338 c -2.948,-0.081 -5.923,-0.148 -8.827,0.439 -1.286,0.226 -1.418,0.854 -1.448,2.053 l -0.777,11.818 z"
         fill="#454545"
         id="path86" />
      <path
         d="m 736.504,710.44 c 1.194,0.391 2.301,1.012 3.258,1.827 0.981,0.792 1.795,1.771 2.394,2.88 -0.5,-0.385 -0.962,-0.786 -1.425,-1.181 -1.3,-1.121 -2.927,-2.398 -4.221,-3.519 z"
         fill="#ffffff"
         id="path88" />
      <path
         d="m 735.831,709.829 c 0.034,1.516 0.03,3.039 0,4.549 l -0.402,-0.125 c 0.392,-0.676 0.804,-1.392 0.622,-2.188 -0.267,-0.973 -0.195,-2.008 0.206,-2.935 1.634,0.611 3.385,0.842 5.122,0.676 v 0.648 c -1.775,-0.095 -3.555,-0.042 -5.322,0.159 l 0.102,-0.392 c 1.1,0.729 1.607,1.823 0.891,3.039 -0.192,0.327 -0.445,0.614 -0.746,0.844 0.729,-0.723 1.209,-2.026 0.435,-2.867 -0.394,-0.373 -0.83,-0.7 -1.3,-0.972 1.979,-0.29 3.975,-0.598 5.99,-0.459 v 0.648 c -1.727,0.194 -3.476,-0.012 -5.112,-0.601 l 0.412,-0.186 c -0.147,0.357 -0.232,0.736 -0.25,1.121 -0.06,0.598 0.22,1.253 0.129,1.895 -0.135,0.657 -0.42,1.275 -0.831,1.806 l -0.469,0.696 c 0.142,-1.783 0.29,-3.576 0.489,-5.349 z"
         fill="#ffffff"
         id="path90" />
      <path
         d="m 736.875,711.254 c 1.094,0.098 2.026,0.851 2.766,1.6 0.763,0.676 1.202,1.726 2.272,1.955 -1.121,0.338 -2.026,-0.817 -2.752,-1.482 -0.685,-0.771 -1.452,-1.466 -2.286,-2.073 z"
         fill="#ffffff"
         id="path92" />
      <path
         d="m 711.945,722.765 c 0.439,1.351 2.729,1.128 3.89,1.371 1.087,0.128 3.262,0.338 4.353,0.422 7.269,0.561 14.575,0.412 21.816,-0.446 1.29,-0.138 3.039,-0.391 4.342,-0.574 -1.428,0.311 -2.867,0.581 -4.309,0.821 -7.965,1.248 -16.067,1.362 -24.064,0.338 l -2.155,-0.318 c -1.182,-0.311 -3.488,-0.179 -3.856,-1.614 z"
         fill="#454545"
         id="path94" />
    </g>
  </g>
</svg>
